<svg xmlns="http://www.w3.org/2000/svg" xmlns:xlink="http://www.w3.org/1999/xlink" xmlns:lucid="lucid" width="1330.26" height="676.39"><g transform="translate(-148.65094980755788 -84.76178409107536)" lucid:page-tab-id="nSsYqxA6CSV9"><path d="M0 0h1760v1360H0z" fill="#fff"/><path d="M1038.7 346.03h440.2V760.9h-440.2z" fill="#d7d7d7"/><use xlink:href="#a" transform="matrix(1,0,0,1,1038.688837918925,346.0320861427219) translate(205.9604938271605 24.07777777777778)"/><path d="M148.65 346.03h440.22v415.13H148.65z" fill="#d7d7d7"/><use xlink:href="#b" transform="matrix(1,0,0,1,148.65094980755788,346.03208614272194) translate(205.9604938271605 24.07777777777778)"/><path d="M260.34 600.57H480.8V710.8H260.35z" stroke="#131313" fill="#fff"/><use xlink:href="#c" transform="matrix(1,0,0,1,260.3396760418418,600.5686993786592) translate(30.138888888888914 61.09375)"/><use xlink:href="#d" transform="matrix(1,0,0,1,260.3396760418418,600.5686993786592) translate(103.36111111111111 61.09375)"/><use xlink:href="#e" transform="matrix(1,0,0,1,260.3396760418418,600.5686993786592) translate(153.25 61.09375)"/><path d="M260.34 419.4H480.8v110.24H260.35z" stroke="#131313" fill="#fff"/><use xlink:href="#f" transform="matrix(1,0,0,1,260.3396760418418,419.4075857419051) translate(28.5277777777778 61.09375)"/><use xlink:href="#g" transform="matrix(1,0,0,1,260.3396760418418,419.4075857419051) translate(85.0277777777778 61.09375)"/><use xlink:href="#e" transform="matrix(1,0,0,1,260.3396760418418,419.4075857419051) translate(154.86111111111111 61.09375)"/><path d="M618.8 439.2h-119v-1.94h119zm510.76-.25h-118.98V437h118.98z" stroke="#131313" stroke-width=".05" fill="#131313"/><path d="M498.8 442.87l-14.25-4.63 14.26-4.64z" fill="#131313"/><path d="M499.8 444.22l-18.4-5.98 18.4-5.98zm-12.1-5.98l10.14 3.3v-6.6z" stroke="#131313" stroke-width=".05" fill="#131313"/><path d="M1144.83 437.97l-14.27 4.64v-9.26z" fill="#131313"/><path d="M1147.98 437.97l-18.4 5.98V432zm-16.44 3.3l10.13-3.3-10.13-3.3z" stroke="#131313" stroke-width=".05" fill="#131313"/><use xlink:href="#h" transform="matrix(1,0,0,1,618.7992291581686,430.1053775423575) translate(0 10.666666666666668)"/><use xlink:href="#i" transform="matrix(1,0,0,1,618.7992291581686,430.1053775423575) translate(29.814814814814817 10.666666666666668)"/><use xlink:href="#j" transform="matrix(1,0,0,1,618.7992291581686,430.1053775423575) translate(52.03703703703704 10.666666666666668)"/><use xlink:href="#k" transform="matrix(1,0,0,1,618.7992291581686,430.1053775423575) translate(89.07407407407408 10.666666666666668)"/><use xlink:href="#l" transform="matrix(1,0,0,1,618.7992291581686,430.1053775423575) translate(133.51851851851853 10.666666666666668)"/><use xlink:href="#m" transform="matrix(1,0,0,1,618.7992291581686,430.1053775423575) translate(176.962962962963 10.666666666666668)"/><use xlink:href="#n" transform="matrix(1,0,0,1,618.7992291581686,430.1053775423575) translate(214.00000000000003 10.666666666666668)"/><use xlink:href="#o" transform="matrix(1,0,0,1,618.7992291581686,430.1053775423575) translate(251.03703703703707 10.666666666666668)"/><use xlink:href="#p" transform="matrix(1,0,0,1,618.7992291581686,430.1053775423575) translate(288.07407407407413 10.666666666666668)"/><use xlink:href="#q" transform="matrix(1,0,0,1,618.7992291581686,430.1053775423575) translate(325.1111111111112 10.666666666666668)"/><use xlink:href="#r" transform="matrix(1,0,0,1,618.7992291581686,430.1053775423575) translate(362.14814814814827 10.666666666666668)"/><path d="M724.08 689.2H499.8v-1.94H724.1zm405.48 0H857.6v-1.94h271.96z" stroke="#131313" stroke-width=".05" fill="#131313"/><path d="M1144.83 688.24l-14.27 4.63v-9.27z" fill="#131313"/><path d="M1147.98 688.24l-18.4 5.98v-11.96zm-16.44 3.3l10.13-3.3-10.13-3.3z" stroke="#131313" stroke-width=".05" fill="#131313"/><path d="M498.8 692.87l-14.25-4.63 14.26-4.64z" fill="#131313"/><path d="M499.8 694.22l-18.4-5.98 18.4-5.98zm-12.1-5.98l10.14 3.3v-6.6z" stroke="#131313" stroke-width=".05" fill="#131313"/><use xlink:href="#h" transform="matrix(1,0,0,1,724.0776032240634,680.2386468772643) translate(0 10.666666666666668)"/><use xlink:href="#s" transform="matrix(1,0,0,1,724.0776032240634,680.2386468772643) translate(29.814814814814817 10.666666666666668)"/><use xlink:href="#t" transform="matrix(1,0,0,1,724.0776032240634,680.2386468772643) translate(66.85185185185185 10.666666666666668)"/><use xlink:href="#u" transform="matrix(1,0,0,1,724.0776032240634,680.2386468772643) translate(103.88888888888889 10.666666666666668)"/><path d="M1148.56 599.85h222.3V711h-222.3z" stroke="#131313" fill="#fff"/><use xlink:href="#c" transform="matrix(1,0,0,1,1148.564119052273,599.8487994336111) translate(31.138888888888914 61.5)"/><use xlink:href="#d" transform="matrix(1,0,0,1,1148.564119052273,599.8487994336111) translate(104.36111111111111 61.5)"/><use xlink:href="#v" transform="matrix(1,0,0,1,1148.564119052273,599.8487994336111) translate(154.25 61.5)"/><path d="M1148.56 419.14h220.48v110.24h-220.48z" stroke="#131313" fill="#fff"/><use xlink:href="#f" transform="matrix(1,0,0,1,1148.564119052273,419.14104707209106) translate(28.5277777777778 61.09375)"/><use xlink:href="#g" transform="matrix(1,0,0,1,1148.564119052273,419.14104707209106) translate(85.0277777777778 61.09375)"/><use xlink:href="#v" transform="matrix(1,0,0,1,1148.564119052273,419.14104707209106) translate(154.86111111111111 61.09375)"/><path d="M1306.3 580.85h-1.94v-8.24h1.95zm0-24.24h-1.94V530.9h1.95z" stroke="#131313" stroke-width=".05" fill="#131313"/><path d="M1305.33 596.1l-4.63-14.25h9.27z" fill="#131313"/><path d="M1305.33 599.27l-5.97-18.4h11.95zm-3.3-16.45l3.3 10.14 3.3-10.14z" stroke="#131313" stroke-width=".05" fill="#131313"/><path d="M1306.3 530.9h-1.94v-1.02h1.95z" fill="#131313"/><path stroke="#131313" stroke-width=".05" fill="#131313"/><use xlink:href="#w" transform="matrix(1,0,0,1,1257.0925925925926,556.6130332528511) translate(0.005000000000002558 10.666666666666668)"/><use xlink:href="#x" transform="matrix(1,0,0,1,1257.0925925925926,556.6130332528511) translate(29.81981481481482 10.666666666666668)"/><use xlink:href="#y" transform="matrix(1,0,0,1,1257.0925925925926,556.6130332528511) translate(66.85685185185184 10.666666666666668)"/><path d="M1180.26 580.85h-1.95v-8.24h1.95zm-.26-24.24h-1.95v-8.22h1.95z" stroke="#131313" stroke-width=".05" fill="#131313"/><path d="M1183.66 547.38h-9.27l4.62-14.27z" fill="#131313"/><path d="M1185 548.35h-11.95l5.97-18.4zm-9.27-1.95h6.6l-3.3-10.13z" stroke="#131313" stroke-width=".05" fill="#131313"/><path d="M1179.28 596.1l-4.63-14.25h9.26z" fill="#131313"/><path d="M1179.28 599.27l-5.98-18.4h11.96zm-3.3-16.45l3.3 10.14 3.3-10.14z" stroke="#131313" stroke-width=".05" fill="#131313"/><use xlink:href="#h" transform="matrix(1,0,0,1,1112.3923756007468,556.6130332528511) translate(0 10.666666666666668)"/><use xlink:href="#s" transform="matrix(1,0,0,1,1112.3923756007468,556.6130332528511) translate(29.814814814814817 10.666666666666668)"/><use xlink:href="#t" transform="matrix(1,0,0,1,1112.3923756007468,556.6130332528511) translate(66.85185185185185 10.666666666666668)"/><use xlink:href="#z" transform="matrix(1,0,0,1,1112.3923756007468,556.6130332528511) translate(103.88888888888889 10.666666666666668)"/><path d="M603.23 656.66H499.8v-1.95h103.43zm526.33-181.43H787.2l-.82.07-.76.18-.73.3-.68.42-.6.5-.5.6-.42.68-.3.73-.2.77-.06.83v169.43l-.08 1.05-.25 1.06-.4 1-.58.95-.72.82-.83.7-.93.58-1 .42-1.08.26-1.05.08h-38.46v-1.95h38.4l.82-.05.76-.2.73-.3.67-.4.6-.5.5-.6.42-.68.3-.73.2-.77.06-.82V480.22l.08-1.05.25-1.07.42-1 .57-.94.72-.84.83-.7.93-.58 1-.42 1.08-.25 1.05-.1h342.43z" stroke="#131313" stroke-width=".05" fill="#131313"/><path d="M1144.83 474.26l-14.27 4.63v-9.28z" fill="#131313"/><path d="M1147.98 474.26l-18.4 5.98v-11.96zm-16.44 3.3l10.13-3.3-10.13-3.3z" stroke="#131313" stroke-width=".05" fill="#131313"/><path d="M498.8 660.32l-14.25-4.63 14.26-4.65z" fill="#131313"/><path d="M499.8 661.66l-18.4-5.97 18.4-6zm-12.1-5.97l10.14 3.28v-6.6z" stroke="#131313" stroke-width=".05" fill="#131313"/><use xlink:href="#h" transform="matrix(1,0,0,1,603.2262827334215,647.6868096148796) translate(0 10.666666666666668)"/><use xlink:href="#s" transform="matrix(1,0,0,1,603.2262827334215,647.6868096148796) translate(29.814814814814817 10.666666666666668)"/><use xlink:href="#t" transform="matrix(1,0,0,1,603.2262827334215,647.6868096148796) translate(66.85185185185185 10.666666666666668)"/><use xlink:href="#u" transform="matrix(1,0,0,1,603.2262827334215,647.6868096148796) translate(103.88888888888889 10.666666666666668)"/><path d="M809.78 498.35l1.06.25 1.02.42.93.57.82.7.7.84.6.93.4 1 .26 1.08.08 1.05v144.18l.07.83.18.77.3.73.42.67.52.6.6.5.67.42.74.3.76.18.83.07h27.2v1.94h-27.28l-1.05-.1-1.07-.24-1-.42-.94-.57-.85-.72-.7-.83-.58-.93-.42-1.02-.25-1.07-.1-1.04V505.28l-.05-.83-.2-.76-.3-.74-.4-.67-.5-.6-.6-.52-.68-.42-.73-.3-.77-.18-.82-.07H499.8v-1.94h308.93zm319.78 156.1v1.94h-148.1v-1.95z" stroke="#131313" stroke-width=".05" fill="#131313"/><path d="M498.8 503.87l-14.25-4.63 14.26-4.64z" fill="#131313"/><path d="M499.8 505.22l-18.4-5.98 18.4-5.98zm-12.1-5.98l10.14 3.3v-6.6z" stroke="#131313" stroke-width=".05" fill="#131313"/><path d="M1144.83 655.42l-14.27 4.64v-9.27z" fill="#131313"/><path d="M1147.98 655.42l-18.4 5.98v-11.96zm-16.44 3.3l10.13-3.3-10.13-3.3z" stroke="#131313" stroke-width=".05" fill="#131313"/><use xlink:href="#h" transform="matrix(1,0,0,1,847.9308634312671,647.4202709450656) translate(0 10.666666666666668)"/><use xlink:href="#s" transform="matrix(1,0,0,1,847.9308634312671,647.4202709450656) translate(29.814814814814817 10.666666666666668)"/><use xlink:href="#t" transform="matrix(1,0,0,1,847.9308634312671,647.4202709450656) translate(66.85185185185185 10.666666666666668)"/><use xlink:href="#u" transform="matrix(1,0,0,1,847.9308634312671,647.4202709450656) translate(103.88888888888889 10.666666666666668)"/><path d="M593.73 84.76h440.22V303.2H593.73z" fill="#d7d7d7"/><g><use xlink:href="#A" transform="matrix(1,0,0,1,593.7304185164048,84.76178409107536) translate(205.9604938271605 24.07777777777778)"/></g><path d="M698.1 124.95h232.57v116.28H698.1z" stroke="#131313" fill="#fff"/><g><use xlink:href="#B" transform="matrix(1,0,0,1,698.1128969858852,124.95106674232295) translate(25.5277777777778 63.53125)"/><use xlink:href="#C" transform="matrix(1,0,0,1,698.1128969858852,124.95106674232295) translate(102.08333333333334 63.53125)"/><use xlink:href="#D" transform="matrix(1,0,0,1,698.1128969858852,124.95106674232295) translate(137.58333333333334 63.53125)"/><use xlink:href="#E" transform="matrix(1,0,0,1,698.1128969858852,124.95106674232295) translate(166.41666666666666 63.53125)"/></g><path d="M483.12 184.06H447.4l-.83.07-.76.18-.72.32-.68.4-.6.52-.5.6-.42.67-.3.74-.18.77-.07.83V400.4h-1.95V189.06l.08-1.05.26-1.07.42-1 .57-.94.72-.84.83-.72.94-.57 1-.42 1.06-.25 1.06-.08h35.8zm196 0H542.56v-1.94H679.1z" stroke="#131313" stroke-width=".05" fill="#131313"/><path d="M441.36 415.67l-4.64-14.26H446z" fill="#131313"/><path d="M441.36 418.83l-5.98-18.4h11.95zm-3.3-16.45l3.3 10.14 3.3-10.14z" stroke="#131313" stroke-width=".05" fill="#131313"/><path d="M694.38 183.1l-14.27 4.63v-9.27z" fill="#131313"/><path d="M697.53 183.1l-18.4 5.97V177.1zm-16.44 3.28l10.12-3.3-10.13-3.28z" stroke="#131313" stroke-width=".05" fill="#131313"/><g><use xlink:href="#w" transform="matrix(1,0,0,1,483.12309568640086,175.0902184436707) translate(0.004999999999999005 10.666666666666668)"/><use xlink:href="#F" transform="matrix(1,0,0,1,483.12309568640086,175.0902184436707) translate(29.819814814814816 10.666666666666668)"/></g><path d="M1191.7 182.2l1.08.25 1 .42.94.57.84.72.7.83.58.92.42 1 .25 1.08.1 1.05v211.1h-1.95V189.12l-.07-.82-.18-.76-.3-.73-.42-.66-.5-.6-.6-.5-.68-.42-.73-.3-.76-.2-.82-.06h-39.12v-1.94h39.2zm-242.03 1.87v-1.95h142.35v1.94z" stroke="#131313" stroke-width=".05" fill="#131313"/><path d="M1196.62 415.4l-4.63-14.26h9.26z" fill="#131313"/><path d="M1196.62 418.56l-5.98-18.4h11.96zm-3.3-16.45l3.3 10.15 3.3-10.14z" stroke="#131313" stroke-width=".05" fill="#131313"/><path d="M948.67 187.72l-14.26-4.63 14.27-4.64z" fill="#131313"/><path d="M949.65 189.07l-18.4-5.98 18.4-6zm-12.1-5.98l10.15 3.28v-6.58z" stroke="#131313" stroke-width=".05" fill="#131313"/><g><use xlink:href="#w" transform="matrix(1,0,0,1,1092.0157248949156,175.0902184436707) translate(0.004999999999999005 10.666666666666668)"/><use xlink:href="#F" transform="matrix(1,0,0,1,1092.0157248949156,175.0902184436707) translate(29.819814814814816 10.666666666666668)"/></g><path d="M443 581.57h-1.94v-8.46H443zm0-24.46h-1.94v-8.45H443z" stroke="#131313" stroke-width=".05" fill="#131313"/><path d="M446.67 547.65h-9.27l4.64-14.27z" fill="#131313"/><path d="M448 548.62h-11.94l5.98-18.4zm-9.26-1.95h6.6l-3.3-10.13z" stroke="#131313" stroke-width=".05" fill="#131313"/><path d="M442.04 596.83l-4.64-14.26h9.27z" fill="#131313"/><path d="M442.04 600l-5.98-18.4H448zm-3.3-16.46l3.3 10.14 3.3-10.14z" stroke="#131313" stroke-width=".05" fill="#131313"/><g><use xlink:href="#h" transform="matrix(1,0,0,1,375.27760322406334,557.1062525602822) translate(0 10.666666666666668)"/><use xlink:href="#s" transform="matrix(1,0,0,1,375.27760322406334,557.1062525602822) translate(29.814814814814817 10.666666666666668)"/><use xlink:href="#t" transform="matrix(1,0,0,1,375.27760322406334,557.1062525602822) translate(66.85185185185185 10.666666666666668)"/><use xlink:href="#z" transform="matrix(1,0,0,1,375.27760322406334,557.1062525602822) translate(103.88888888888889 10.666666666666668)"/></g><path d="M316.98 581.57h-1.96v-8.46h1.96zm0-24.46h-1.96v-25.96h1.96z" stroke="#131313" stroke-width=".05" fill="#131313"/><path d="M316 596.83l-4.63-14.26h9.26z" fill="#131313"/><path d="M316 600l-5.98-18.4h11.96zm-3.3-16.46l3.3 10.14 3.3-10.14z" stroke="#131313" stroke-width=".05" fill="#131313"/><path d="M316.98 531.17h-1.96v-1.03h1.96z" fill="#131313"/><path stroke="#131313" stroke-width=".05" fill="#131313"/><g><use xlink:href="#w" transform="matrix(1,0,0,1,267.75925925925924,557.1062525602822) translate(0.005000000000002558 10.666666666666668)"/><use xlink:href="#x" transform="matrix(1,0,0,1,267.75925925925924,557.1062525602822) translate(29.81981481481482 10.666666666666668)"/><use xlink:href="#y" transform="matrix(1,0,0,1,267.75925925925924,557.1062525602822) translate(66.85685185185184 10.666666666666668)"/></g><defs><path fill="#131313" d="M205 0l-28-72H64L36 0H1l101-248h38L239 0h-34zm-38-99l-47-123c-12 45-31 82-46 123h93" id="G"/><path fill="#131313" d="M209 0H11v-25l151-195H24v-28h176v25L50-27h159V0" id="H"/><path fill="#131313" d="M101-251c82-7 93 87 43 132L82-64C71-53 59-42 53-27h129V0H18c2-99 128-94 128-182 0-28-16-43-45-43s-46 15-49 41l-32-3c6-41 34-60 81-64" id="I"/><g id="a"><use transform="matrix(0.06172839506172839,0,0,0.06172839506172839,0,0)" xlink:href="#G"/><use transform="matrix(0.06172839506172839,0,0,0.06172839506172839,14.814814814814813,0)" xlink:href="#H"/><use transform="matrix(0.06172839506172839,0,0,0.06172839506172839,28.33333333333333,0)" xlink:href="#I"/></g><path fill="#131313" d="M27 0v-27h64v-190l-56 39v-29l58-41h29v221h61V0H27" id="J"/><g id="b"><use transform="matrix(0.06172839506172839,0,0,0.06172839506172839,0,0)" xlink:href="#G"/><use transform="matrix(0.06172839506172839,0,0,0.06172839506172839,14.814814814814813,0)" xlink:href="#H"/><use transform="matrix(0.06172839506172839,0,0,0.06172839506172839,28.33333333333333,0)" xlink:href="#J"/></g><path fill="#131313" d="M190 0L58-211 59 0H30v-248h39L202-35l-2-213h31V0h-41" id="K"/><path fill="#131313" d="M84 4C-5 8 30-112 23-190h32v120c0 31 7 50 39 49 72-2 45-101 50-169h31l1 190h-30c-1-10 1-25-2-33-11 22-28 36-60 37" id="L"/><path fill="#131313" d="M59-47c-2 24 18 29 38 22v24C64 9 27 4 27-40v-127H5v-23h24l9-43h21v43h35v23H59v120" id="M"/><path fill="#131313" d="M141-36C126-15 110 5 73 4 37 3 15-17 15-53c-1-64 63-63 125-63 3-35-9-54-41-54-24 1-41 7-42 31l-33-3c5-37 33-52 76-52 45 0 72 20 72 64v82c-1 20 7 32 28 27v20c-31 9-61-2-59-35zM48-53c0 20 12 33 32 33 41-3 63-29 60-74-43 2-92-5-92 41" id="N"/><path fill="#131313" d="M117-194c89-4 53 116 60 194h-32v-121c0-31-8-49-39-48C34-167 62-67 57 0H25l-1-190h30c1 10-1 24 2 32 11-22 29-35 61-36" id="O"/><path fill="#131313" d="M24-231v-30h32v30H24zM24 0v-190h32V0H24" id="P"/><path fill="#131313" d="M141 0L90-78 38 0H4l68-98-65-92h35l48 74 47-74h35l-64 92 68 98h-35" id="Q"/><g id="c"><use transform="matrix(0.055555555555555546,0,0,0.055555555555555546,0,0)" xlink:href="#K"/><use transform="matrix(0.055555555555555546,0,0,0.055555555555555546,14.388888888888886,0)" xlink:href="#L"/><use transform="matrix(0.055555555555555546,0,0,0.055555555555555546,25.499999999999993,0)" xlink:href="#M"/><use transform="matrix(0.055555555555555546,0,0,0.055555555555555546,31.055555555555543,0)" xlink:href="#N"/><use transform="matrix(0.055555555555555546,0,0,0.055555555555555546,42.16666666666666,0)" xlink:href="#O"/><use transform="matrix(0.055555555555555546,0,0,0.055555555555555546,53.277777777777764,0)" xlink:href="#P"/><use transform="matrix(0.055555555555555546,0,0,0.055555555555555546,57.66666666666666,0)" xlink:href="#Q"/></g><path fill="#131313" d="M212-179c-10-28-35-45-73-45-59 0-87 40-87 99 0 60 29 101 89 101 43 0 62-24 78-52l27 14C228-24 195 4 139 4 59 4 22-46 18-125c-6-104 99-153 187-111 19 9 31 26 39 46" id="R"/><path fill="#131313" d="M137 0h-34L2-248h35l83 218 83-218h36" id="S"/><path fill="#131313" d="M240 0l2-218c-23 76-54 145-80 218h-23L58-218 59 0H30v-248h44l77 211c21-75 51-140 76-211h43V0h-30" id="T"/><g id="d"><use transform="matrix(0.055555555555555546,0,0,0.055555555555555546,0,0)" xlink:href="#R"/><use transform="matrix(0.055555555555555546,0,0,0.055555555555555546,14.388888888888886,0)" xlink:href="#S"/><use transform="matrix(0.055555555555555546,0,0,0.055555555555555546,27.722222222222214,0)" xlink:href="#T"/></g><g id="e"><use transform="matrix(0.055555555555555546,0,0,0.055555555555555546,0,0)" xlink:href="#G"/><use transform="matrix(0.055555555555555546,0,0,0.055555555555555546,13.33333333333333,0)" xlink:href="#H"/><use transform="matrix(0.055555555555555546,0,0,0.055555555555555546,25.499999999999993,0)" xlink:href="#J"/></g><path fill="#131313" d="M30-248c87 1 191-15 191 75 0 78-77 80-158 76V0H30v-248zm33 125c57 0 124 11 124-50 0-59-68-47-124-48v98" id="U"/><path fill="#131313" d="M114-163C36-179 61-72 57 0H25l-1-190h30c1 12-1 29 2 39 6-27 23-49 58-41v29" id="V"/><path fill="#131313" d="M135-143c-3-34-86-38-87 0 15 53 115 12 119 90S17 21 10-45l28-5c4 36 97 45 98 0-10-56-113-15-118-90-4-57 82-63 122-42 12 7 21 19 24 35" id="W"/><path fill="#131313" d="M210-169c-67 3-38 105-44 169h-31v-121c0-29-5-50-35-48C34-165 62-65 56 0H25l-1-190h30c1 10-1 24 2 32 10-44 99-50 107 0 11-21 27-35 58-36 85-2 47 119 55 194h-31v-121c0-29-5-49-35-48" id="X"/><g id="f"><use transform="matrix(0.055555555555555546,0,0,0.055555555555555546,0,0)" xlink:href="#U"/><use transform="matrix(0.055555555555555546,0,0,0.055555555555555546,13.33333333333333,0)" xlink:href="#V"/><use transform="matrix(0.055555555555555546,0,0,0.055555555555555546,19.94444444444444,0)" xlink:href="#P"/><use transform="matrix(0.055555555555555546,0,0,0.055555555555555546,24.33333333333333,0)" xlink:href="#W"/><use transform="matrix(0.055555555555555546,0,0,0.055555555555555546,34.33333333333333,0)" xlink:href="#X"/></g><path fill="#131313" d="M100-194c63 0 86 42 84 106H49c0 40 14 67 53 68 26 1 43-12 49-29l28 8c-11 28-37 45-77 45C44 4 14-33 15-96c1-61 26-98 85-98zm52 81c6-60-76-77-97-28-3 7-6 17-6 28h103" id="Y"/><path fill="#131313" d="M24 0v-261h32V0H24" id="Z"/><g id="g"><use transform="matrix(0.055555555555555546,0,0,0.055555555555555546,0,0)" xlink:href="#R"/><use transform="matrix(0.055555555555555546,0,0,0.055555555555555546,14.388888888888886,0)" xlink:href="#Y"/><use transform="matrix(0.055555555555555546,0,0,0.055555555555555546,25.499999999999993,0)" xlink:href="#O"/><use transform="matrix(0.055555555555555546,0,0,0.055555555555555546,36.6111111111111,0)" xlink:href="#M"/><use transform="matrix(0.055555555555555546,0,0,0.055555555555555546,42.16666666666666,0)" xlink:href="#V"/><use transform="matrix(0.055555555555555546,0,0,0.055555555555555546,48.777777777777764,0)" xlink:href="#N"/><use transform="matrix(0.055555555555555546,0,0,0.055555555555555546,59.888888888888864,0)" xlink:href="#Z"/></g><path d="M151-220L108 0H75l42-220H32l6-28h203l-5 28h-85" id="aa"/><path d="M125-24c46 0 70-25 89-51l25 16C214-24 183 4 123 4 8 4-5-146 60-208c32-50 158-61 191-5 5 7 9 14 11 22l-32 10c-9-28-33-43-69-43-74 0-108 51-108 125 0 46 24 75 72 75" id="ab"/><path d="M238-179c0 84-86 86-175 82L45 0H11l48-248c82 0 179-12 179 69zm-34 1c0-53-64-42-116-43l-19 98c63 0 135 9 135-55" id="ac"/><g id="h"><use transform="matrix(0.03703703703703704,0,0,0.03703703703703704,0,0)" xlink:href="#aa"/><use transform="matrix(0.03703703703703704,0,0,0.03703703703703704,8.111111111111112,0)" xlink:href="#ab"/><use transform="matrix(0.03703703703703704,0,0,0.03703703703703704,17.703703703703706,0)" xlink:href="#ac"/></g><path d="M123-251c66 0 92 69 53 113C138-94 73-75 39-27h128l-5 27H-2c17-92 123-93 159-163 14-28-1-64-36-62-29 2-46 17-54 41l-30-6c13-36 37-61 86-61" id="ad"/><path d="M58-38C53-5 46 26 28 46H7C19 32 27 18 32 0H17l7-38h34" id="ae"/><g id="i"><use transform="matrix(0.03703703703703704,0,0,0.03703703703703704,0,0)" xlink:href="#ad"/><use transform="matrix(0.03703703703703704,0,0,0.03703703703703704,7.407407407407408,0)" xlink:href="#ad"/><use transform="matrix(0.03703703703703704,0,0,0.03703703703703704,14.814814814814817,0)" xlink:href="#ae"/></g><path d="M16-82c0-90 25-169 113-169 48 0 68 33 68 82C197-79 170 4 84 4 37 4 16-31 16-82zm30 5c0 32 11 55 40 55 69 0 76-79 80-149 2-32-10-55-39-55-69 0-81 81-81 149" id="af"/><path d="M40-53c7 41 73 38 88 5 14-18 25-43 30-72-13 20-31 35-60 35-44 0-69-27-69-70 0-57 32-96 91-96 58 0 76 44 72 106C186-56 125 37 35-9c-12-6-19-20-23-36zm62-57c67 0 87-116 17-116-39 0-58 29-58 71 1 27 12 45 41 45" id="ag"/><g id="j"><use transform="matrix(0.03703703703703704,0,0,0.03703703703703704,0,0)" xlink:href="#ad"/><use transform="matrix(0.03703703703703704,0,0,0.03703703703703704,7.407407407407408,0)" xlink:href="#af"/><use transform="matrix(0.03703703703703704,0,0,0.03703703703703704,14.814814814814817,0)" xlink:href="#af"/><use transform="matrix(0.03703703703703704,0,0,0.03703703703703704,22.222222222222225,0)" xlink:href="#ag"/><use transform="matrix(0.03703703703703704,0,0,0.03703703703703704,29.629629629629633,0)" xlink:href="#ae"/></g><path d="M9 0l6-27h63l36-188-63 39 6-31 66-41h29L110-27h60l-5 27H9" id="ah"/><path d="M149-56L138 0h-32l11-56H2l5-25 144-167h35L154-81h33l-5 25h-33zm-4-147L40-81h82" id="ai"/><path d="M39-185c1-48 36-66 85-66 42 0 74 18 74 59 0 38-25 57-56 64 23 7 40 22 40 52 0 55-39 80-94 80C40 4 10-17 9-63c-1-44 31-60 63-71-20-7-33-25-33-51zm31 3c0 26 17 39 46 39 34 0 48-18 49-48 0-25-18-36-45-36-32 0-50 15-50 45zm79 105c0-29-19-41-50-41-37 0-57 20-57 55 0 29 19 42 49 42 36 0 58-19 58-56" id="aj"/><g id="k"><use transform="matrix(0.03703703703703704,0,0,0.03703703703703704,0,0)" xlink:href="#ah"/><use transform="matrix(0.03703703703703704,0,0,0.03703703703703704,7.407407407407408,0)" xlink:href="#ai"/><use transform="matrix(0.03703703703703704,0,0,0.03703703703703704,14.814814814814817,0)" xlink:href="#ah"/><use transform="matrix(0.03703703703703704,0,0,0.03703703703703704,22.222222222222225,0)" xlink:href="#af"/><use transform="matrix(0.03703703703703704,0,0,0.03703703703703704,29.629629629629633,0)" xlink:href="#aj"/><use transform="matrix(0.03703703703703704,0,0,0.03703703703703704,37.03703703703704,0)" xlink:href="#ae"/></g><g id="l"><use transform="matrix(0.03703703703703704,0,0,0.03703703703703704,0,0)" xlink:href="#ah"/><use transform="matrix(0.03703703703703704,0,0,0.03703703703703704,7.407407407407408,0)" xlink:href="#ai"/><use transform="matrix(0.03703703703703704,0,0,0.03703703703703704,14.814814814814817,0)" xlink:href="#ah"/><use transform="matrix(0.03703703703703704,0,0,0.03703703703703704,21.222222222222225,0)" xlink:href="#ah"/><use transform="matrix(0.03703703703703704,0,0,0.03703703703703704,28.629629629629633,0)" xlink:href="#ag"/><use transform="matrix(0.03703703703703704,0,0,0.03703703703703704,36.03703703703704,0)" xlink:href="#ae"/></g><path d="M206-222l-58 71C115-108 89-62 76 0H43c20-96 77-159 130-221H37l5-27h169" id="ak"/><g id="m"><use transform="matrix(0.03703703703703704,0,0,0.03703703703703704,0,0)" xlink:href="#aj"/><use transform="matrix(0.03703703703703704,0,0,0.03703703703703704,7.407407407407408,0)" xlink:href="#ak"/><use transform="matrix(0.03703703703703704,0,0,0.03703703703703704,14.814814814814817,0)" xlink:href="#ai"/><use transform="matrix(0.03703703703703704,0,0,0.03703703703703704,22.222222222222225,0)" xlink:href="#af"/><use transform="matrix(0.03703703703703704,0,0,0.03703703703703704,29.629629629629633,0)" xlink:href="#ae"/></g><g id="n"><use transform="matrix(0.03703703703703704,0,0,0.03703703703703704,0,0)" xlink:href="#ad"/><use transform="matrix(0.03703703703703704,0,0,0.03703703703703704,7.407407407407408,0)" xlink:href="#af"/><use transform="matrix(0.03703703703703704,0,0,0.03703703703703704,14.814814814814817,0)" xlink:href="#ag"/><use transform="matrix(0.03703703703703704,0,0,0.03703703703703704,22.222222222222225,0)" xlink:href="#af"/><use transform="matrix(0.03703703703703704,0,0,0.03703703703703704,29.629629629629633,0)" xlink:href="#ae"/></g><path d="M148-71c0-36-31-44-71-41l5-28c46 3 81-6 81-50 0-23-15-35-39-35-30 0-49 17-56 41l-32-3c12-39 42-63 90-64 43 0 69 19 71 60 1 43-30 58-65 66 27 5 49 22 49 53 0 85-133 99-164 35-4-7-7-15-9-22l29-9c8 25 25 45 58 45 34 1 53-17 53-48" id="al"/><g id="o"><use transform="matrix(0.03703703703703704,0,0,0.03703703703703704,0,0)" xlink:href="#ad"/><use transform="matrix(0.03703703703703704,0,0,0.03703703703703704,7.407407407407408,0)" xlink:href="#af"/><use transform="matrix(0.03703703703703704,0,0,0.03703703703703704,14.814814814814817,0)" xlink:href="#ak"/><use transform="matrix(0.03703703703703704,0,0,0.03703703703703704,22.222222222222225,0)" xlink:href="#al"/><use transform="matrix(0.03703703703703704,0,0,0.03703703703703704,29.629629629629633,0)" xlink:href="#ae"/></g><path d="M184-94c-4 58-33 98-90 98-50 0-74-35-74-86 0-94 36-181 136-167 24 3 39 21 44 47l-29 6c-8-40-68-34-87-5-13 20-24 43-30 73 28-51 135-39 130 34zm-73-42c-35 2-61 22-60 62 1 30 14 52 44 52 38 0 55-31 56-70 1-26-14-46-40-44" id="am"/><g id="p"><use transform="matrix(0.03703703703703704,0,0,0.03703703703703704,0,0)" xlink:href="#ad"/><use transform="matrix(0.03703703703703704,0,0,0.03703703703703704,7.407407407407408,0)" xlink:href="#af"/><use transform="matrix(0.03703703703703704,0,0,0.03703703703703704,14.814814814814817,0)" xlink:href="#al"/><use transform="matrix(0.03703703703703704,0,0,0.03703703703703704,22.222222222222225,0)" xlink:href="#am"/><use transform="matrix(0.03703703703703704,0,0,0.03703703703703704,29.629629629629633,0)" xlink:href="#ae"/></g><g id="q"><use transform="matrix(0.03703703703703704,0,0,0.03703703703703704,0,0)" xlink:href="#ad"/><use transform="matrix(0.03703703703703704,0,0,0.03703703703703704,7.407407407407408,0)" xlink:href="#af"/><use transform="matrix(0.03703703703703704,0,0,0.03703703703703704,14.814814814814817,0)" xlink:href="#al"/><use transform="matrix(0.03703703703703704,0,0,0.03703703703703704,22.222222222222225,0)" xlink:href="#af"/><use transform="matrix(0.03703703703703704,0,0,0.03703703703703704,29.629629629629633,0)" xlink:href="#ae"/></g><g id="r"><use transform="matrix(0.03703703703703704,0,0,0.03703703703703704,0,0)" xlink:href="#ad"/><use transform="matrix(0.03703703703703704,0,0,0.03703703703703704,7.407407407407408,0)" xlink:href="#af"/><use transform="matrix(0.03703703703703704,0,0,0.03703703703703704,14.814814814814817,0)" xlink:href="#ad"/><use transform="matrix(0.03703703703703704,0,0,0.03703703703703704,22.222222222222225,0)" xlink:href="#af"/></g><g id="s"><use transform="matrix(0.03703703703703704,0,0,0.03703703703703704,0,0)" xlink:href="#ag"/><use transform="matrix(0.03703703703703704,0,0,0.03703703703703704,7.407407407407408,0)" xlink:href="#ai"/><use transform="matrix(0.03703703703703704,0,0,0.03703703703703704,14.814814814814817,0)" xlink:href="#ai"/><use transform="matrix(0.03703703703703704,0,0,0.03703703703703704,22.222222222222225,0)" xlink:href="#af"/><use transform="matrix(0.03703703703703704,0,0,0.03703703703703704,29.629629629629633,0)" xlink:href="#ae"/></g><g id="t"><use transform="matrix(0.03703703703703704,0,0,0.03703703703703704,0,0)" xlink:href="#ag"/><use transform="matrix(0.03703703703703704,0,0,0.03703703703703704,7.407407407407408,0)" xlink:href="#al"/><use transform="matrix(0.03703703703703704,0,0,0.03703703703703704,14.814814814814817,0)" xlink:href="#af"/><use transform="matrix(0.03703703703703704,0,0,0.03703703703703704,22.222222222222225,0)" xlink:href="#af"/><use transform="matrix(0.03703703703703704,0,0,0.03703703703703704,29.629629629629633,0)" xlink:href="#ae"/></g><g id="u"><use transform="matrix(0.03703703703703704,0,0,0.03703703703703704,0,0)" xlink:href="#ag"/><use transform="matrix(0.03703703703703704,0,0,0.03703703703703704,7.407407407407408,0)" xlink:href="#al"/><use transform="matrix(0.03703703703703704,0,0,0.03703703703703704,14.814814814814817,0)" xlink:href="#af"/><use transform="matrix(0.03703703703703704,0,0,0.03703703703703704,22.222222222222225,0)" xlink:href="#ah"/></g><g id="v"><use transform="matrix(0.055555555555555546,0,0,0.055555555555555546,0,0)" xlink:href="#G"/><use transform="matrix(0.055555555555555546,0,0,0.055555555555555546,13.33333333333333,0)" xlink:href="#H"/><use transform="matrix(0.055555555555555546,0,0,0.055555555555555546,25.499999999999993,0)" xlink:href="#I"/></g><path fill="#131313" d="M151-220L108 0H75l42-220H32l6-28h203l-5 28h-85" id="an"/><path fill="#131313" d="M125-24c46 0 70-25 89-51l25 16C214-24 183 4 123 4 8 4-5-146 60-208c32-50 158-61 191-5 5 7 9 14 11 22l-32 10c-9-28-33-43-69-43-74 0-108 51-108 125 0 46 24 75 72 75" id="ao"/><path fill="#131313" d="M238-179c0 84-86 86-175 82L45 0H11l48-248c82 0 179-12 179 69zm-34 1c0-53-64-42-116-43l-19 98c63 0 135 9 135-55" id="ap"/><g id="w"><use transform="matrix(0.03703703703703704,0,0,0.03703703703703704,0,0)" xlink:href="#an"/><use transform="matrix(0.03703703703703704,0,0,0.03703703703703704,8.111111111111112,0)" xlink:href="#ao"/><use transform="matrix(0.03703703703703704,0,0,0.03703703703703704,17.703703703703706,0)" xlink:href="#ap"/></g><path fill="#131313" d="M148-71c0-36-31-44-71-41l5-28c46 3 81-6 81-50 0-23-15-35-39-35-30 0-49 17-56 41l-32-3c12-39 42-63 90-64 43 0 69 19 71 60 1 43-30 58-65 66 27 5 49 22 49 53 0 85-133 99-164 35-4-7-7-15-9-22l29-9c8 25 25 45 58 45 34 1 53-17 53-48" id="aq"/><path fill="#131313" d="M123-251c66 0 92 69 53 113C138-94 73-75 39-27h128l-5 27H-2c17-92 123-93 159-163 14-28-1-64-36-62-29 2-46 17-54 41l-30-6c13-36 37-61 86-61" id="ar"/><path fill="#131313" d="M16-82c0-90 25-169 113-169 48 0 68 33 68 82C197-79 170 4 84 4 37 4 16-31 16-82zm30 5c0 32 11 55 40 55 69 0 76-79 80-149 2-32-10-55-39-55-69 0-81 81-81 149" id="as"/><path fill="#131313" d="M151-85c6-55-69-56-94-29H26l34-134h141l-5 27H84l-20 79c41-34 127-11 121 53C199 13 30 38 8-54l29-8C52 0 159-13 151-85" id="at"/><path fill="#131313" d="M58-38C53-5 46 26 28 46H7C19 32 27 18 32 0H17l7-38h34" id="au"/><g id="x"><use transform="matrix(0.03703703703703704,0,0,0.03703703703703704,0,0)" xlink:href="#aq"/><use transform="matrix(0.03703703703703704,0,0,0.03703703703703704,7.407407407407408,0)" xlink:href="#ar"/><use transform="matrix(0.03703703703703704,0,0,0.03703703703703704,14.814814814814817,0)" xlink:href="#as"/><use transform="matrix(0.03703703703703704,0,0,0.03703703703703704,22.222222222222225,0)" xlink:href="#at"/><use transform="matrix(0.03703703703703704,0,0,0.03703703703703704,29.629629629629633,0)" xlink:href="#au"/></g><path fill="#131313" d="M184-94c-4 58-33 98-90 98-50 0-74-35-74-86 0-94 36-181 136-167 24 3 39 21 44 47l-29 6c-8-40-68-34-87-5-13 20-24 43-30 73 28-51 135-39 130 34zm-73-42c-35 2-61 22-60 62 1 30 14 52 44 52 38 0 55-31 56-70 1-26-14-46-40-44" id="av"/><g id="y"><use transform="matrix(0.03703703703703704,0,0,0.03703703703703704,0,0)" xlink:href="#aq"/><use transform="matrix(0.03703703703703704,0,0,0.03703703703703704,7.407407407407408,0)" xlink:href="#ar"/><use transform="matrix(0.03703703703703704,0,0,0.03703703703703704,14.814814814814817,0)" xlink:href="#av"/><use transform="matrix(0.03703703703703704,0,0,0.03703703703703704,22.222222222222225,0)" xlink:href="#as"/></g><g id="z"><use transform="matrix(0.03703703703703704,0,0,0.03703703703703704,0,0)" xlink:href="#ag"/><use transform="matrix(0.03703703703703704,0,0,0.03703703703703704,7.407407407407408,0)" xlink:href="#al"/><use transform="matrix(0.03703703703703704,0,0,0.03703703703703704,14.814814814814817,0)" xlink:href="#af"/><use transform="matrix(0.03703703703703704,0,0,0.03703703703703704,22.222222222222225,0)" xlink:href="#ah"/></g><path fill="#131313" d="M126-127c33 6 58 20 58 59 0 88-139 92-164 29-3-8-5-16-6-25l32-3c6 27 21 44 54 44 32 0 52-15 52-46 0-38-36-46-79-43v-28c39 1 72-4 72-42 0-27-17-43-46-43-28 0-47 15-49 41l-32-3c6-42 35-63 81-64 48-1 79 21 79 65 0 36-21 52-52 59" id="aw"/><g id="A"><use transform="matrix(0.06172839506172839,0,0,0.06172839506172839,0,0)" xlink:href="#G"/><use transform="matrix(0.06172839506172839,0,0,0.06172839506172839,14.814814814814813,0)" xlink:href="#H"/><use transform="matrix(0.06172839506172839,0,0,0.06172839506172839,28.33333333333333,0)" xlink:href="#aw"/></g><path fill="#131313" d="M266 0h-40l-56-210L115 0H75L2-248h35L96-30l15-64 43-154h32l59 218 59-218h35" id="ax"/><g id="B"><use transform="matrix(0.055555555555555546,0,0,0.055555555555555546,0,0)" xlink:href="#ax"/><use transform="matrix(0.055555555555555546,0,0,0.055555555555555546,18.83333333333333,0)" xlink:href="#P"/><use transform="matrix(0.055555555555555546,0,0,0.055555555555555546,23.222222222222218,0)" xlink:href="#M"/><use transform="matrix(0.055555555555555546,0,0,0.055555555555555546,28.77777777777777,0)" xlink:href="#O"/><use transform="matrix(0.055555555555555546,0,0,0.055555555555555546,39.88888888888888,0)" xlink:href="#Y"/><use transform="matrix(0.055555555555555546,0,0,0.055555555555555546,50.999999999999986,0)" xlink:href="#W"/><use transform="matrix(0.055555555555555546,0,0,0.055555555555555546,60.999999999999986,0)" xlink:href="#W"/></g><g id="C"><use transform="matrix(0.055555555555555546,0,0,0.055555555555555546,0,0)" xlink:href="#S"/><use transform="matrix(0.055555555555555546,0,0,0.055555555555555546,13.33333333333333,0)" xlink:href="#T"/></g><path fill="#131313" d="M101-234c-31-9-42 10-38 44h38v23H63V0H32v-167H5v-23h27c-7-52 17-82 69-68v24" id="ay"/><path fill="#131313" d="M100-194c62-1 85 37 85 99 1 63-27 99-86 99S16-35 15-95c0-66 28-99 85-99zM99-20c44 1 53-31 53-75 0-43-8-75-51-75s-53 32-53 75 10 74 51 75" id="az"/><g id="D"><use transform="matrix(0.055555555555555546,0,0,0.055555555555555546,0,0)" xlink:href="#ay"/><use transform="matrix(0.055555555555555546,0,0,0.055555555555555546,5.5555555555555545,0)" xlink:href="#az"/><use transform="matrix(0.055555555555555546,0,0,0.055555555555555546,16.666666666666664,0)" xlink:href="#V"/></g><path fill="#131313" d="M197 0v-115H63V0H30v-248h33v105h134v-105h34V0h-34" id="aA"/><g id="E"><use transform="matrix(0.055555555555555546,0,0,0.055555555555555546,0,0)" xlink:href="#G"/><use transform="matrix(0.055555555555555546,0,0,0.055555555555555546,13.33333333333333,0)" xlink:href="#aA"/><use transform="matrix(0.055555555555555546,0,0,0.055555555555555546,27.722222222222214,0)" xlink:href="#S"/></g><path fill="#131313" d="M40-53c7 41 73 38 88 5 14-18 25-43 30-72-13 20-31 35-60 35-44 0-69-27-69-70 0-57 32-96 91-96 58 0 76 44 72 106C186-56 125 37 35-9c-12-6-19-20-23-36zm62-57c67 0 87-116 17-116-39 0-58 29-58 71 1 27 12 45 41 45" id="aB"/><path fill="#131313" d="M149-56L138 0h-32l11-56H2l5-25 144-167h35L154-81h33l-5 25h-33zm-4-147L40-81h82" id="aC"/><g id="F"><use transform="matrix(0.03703703703703704,0,0,0.03703703703703704,0,0)" xlink:href="#aB"/><use transform="matrix(0.03703703703703704,0,0,0.03703703703703704,7.407407407407408,0)" xlink:href="#aC"/><use transform="matrix(0.03703703703703704,0,0,0.03703703703703704,14.814814814814817,0)" xlink:href="#aC"/><use transform="matrix(0.03703703703703704,0,0,0.03703703703703704,22.222222222222225,0)" xlink:href="#as"/></g></defs></g></svg>